<?xml version="1.0" encoding="UTF-8"?>
<svg version="1.1" viewBox="0 0 728 400" xmlns="http://www.w3.org/2000/svg">
<defs>
<style>.cls-1, .cls-2, .cls-3, .cls-4 {
        fill: none;
      }

      .cls-5 {
        font-size: 25.88px;
        letter-spacing: -.02em;
        stroke-width: 1.57px;
      }

      .cls-5, .cls-6, .cls-7 {
        stroke-miterlimit: 10;
      }

      .cls-5, .cls-8, .cls-9, .cls-7 {
        fill: #e61f2a;
      }

      .cls-5, .cls-7 {
        font-family: DreamingOutloudSans-Regular, 'Dreaming Outloud Sans';
        stroke: #e61f2a;
      }

      .cls-2, .cls-6, .cls-8, .cls-3, .cls-10, .cls-11, .cls-4 {
        stroke-linecap: round;
      }

      .cls-2, .cls-6, .cls-8, .cls-10, .cls-11 {
        stroke: #333;
      }

      .cls-2, .cls-8, .cls-3, .cls-10 {
        stroke-width: 4px;
      }

      .cls-2, .cls-8, .cls-3, .cls-10, .cls-11, .cls-4 {
        stroke-linejoin: round;
      }

      .cls-12 {
        fill: #fac800;
      }

      .cls-6, .cls-13, .cls-10 {
        fill: #fff;
      }

      .cls-6, .cls-4 {
        stroke-width: 3px;
      }

      .cls-14 {
        fill: #6fb7ff;
      }

      .cls-15 {
        fill: #6fb7ff;
      }

      .cls-16 {
        fill: #000333;
      }

      .cls-3 {
        stroke: #e61f2a;
      }

      .cls-17 {
        fill: #d8eaff;
      }

      .cls-18 {
        fill: #d8eaff;
      }

      .cls-19 {
        fill: #00c98a;
      }

      .cls-20, .cls-11 {
        fill: #f2f2f2;
      }

      .cls-7 {
        font-size: 33px;
        letter-spacing: -.02em;
        stroke-width: 2px;
      }

      .cls-11 {
        stroke-width: 2.5px;
      }

      .cls-4 {
        stroke: #00c98a;
      }

      .cls-21 {
        fill: #333;
      }

      .cls-22 {
        clip-path: url(#a);
      }</style>
<clipPath id="a">
<rect class="cls-1" x="-23.43" y="103.53" width="740.89" height="294.78"/>
</clipPath>
</defs>
<path class="cls-21" d="m450.85 293.01c-4.13-14.28-22.17-10.52-7.46-38.27 3.18-5.99 6.67-10.2 10.46-12.97 1.88-1.38 8.49-2.82 13.16-3.25s13.15-0.75 14.84-0.45c25.79 4.58 58.35 22.36 98-12.64 55.98-49.42 131.21-15.77 131.21 43.6 0 8.37-0.88 16.22-2.56 23.55l-257.64 0.44z"/>
<path class="cls-21" d="M469.64,250.54c-5.51-2.26,12.01-18.91,16.27-27.06.87-1.66,3.26-1.57,4.02.14l13.91,31.12-34.2-4.2Z"/>
<path class="cls-21" d="M470.02,248.66c-4.43-4.78-17.8-13.4-23.77-18.38-1.61-1.34-4.05-.19-4.05,1.91v27.18c0,1.75,1.76,2.94,3.38,2.3l21.08-8.36c1.61-.64,4.53-3.37,3.35-4.64Z"/>
<path class="cls-21" d="m405.28 292.6c-4.57-14.2 17.95-14.22 60.13-12.03 44.54 2.32 82.68 4.57 82.68 4.57l-2.72 4.76-140.1 2.69z"/>
<path class="cls-13" d="m674.02 221.75c-7.29-2.57-14.17-5.03-21.64-6.56-7.43-1.78-14.62-2.07-22.38-2.52l-0.07-0.31c11.38-2.75 23.55-1.51 34.2 3.35 3.55 1.58 6.96 3.48 10.09 5.79l-0.2 0.25z"/>
<path class="cls-13" d="M119.7,292.48c-.83,0-1.5-.67-1.5-1.5V45.65c0-.83.67-1.5,1.5-1.5h337.95c.83,0,1.5.67,1.5,1.5v219.03c0,.44-.19.86-.53,1.15l-31.13,26.3c-.27.23-.61.35-.97.35H119.7Z"/>
<path class="cls-21" d="M457.65,45.65v219.03l-31.13,26.3H119.7V45.65h337.95M457.65,42.65H119.7c-1.66,0-3,1.34-3,3v245.33c0,1.66,1.34,3,3,3h306.82c.71,0,1.39-.25,1.94-.71l31.13-26.3c.67-.57,1.06-1.41,1.06-2.29V45.65c0-1.66-1.34-3-3-3h0Z"/>
<polygon class="cls-20" points="426.52 290.98 124.83 290.98 124.83 50.77 457.65 50.77 457.65 264.68"/>
<path class="cls-13" d="M426.63,292.48c-.21,0-.43-.05-.63-.14-.53-.25-.87-.78-.87-1.36v-26.66c0-.4.16-.79.45-1.07.28-.28.66-.43,1.05-.43h.02c.29,0,28.57.42,30.99.42.63,0,1.19.39,1.41.98.22.59.04,1.25-.44,1.66l-31.01,26.24c-.28.23-.62.35-.97.35Z"/>
<path class="cls-21" d="M426.63,264.31s28.56.42,31.01.42l-31.01,26.24v-26.66M426.63,261.31c-.79,0-1.54.31-2.11.86-.57.56-.89,1.33-.89,2.14v26.66c0,1.17.68,2.23,1.74,2.72.4.19.83.28,1.26.28.7,0,1.39-.24,1.94-.71l31.01-26.24c.96-.81,1.31-2.14.88-3.32-.43-1.18-1.56-1.97-2.82-1.97-2.4,0-30.68-.42-30.97-.42-.01,0-.03,0-.04,0h0Z"/>
<circle class="cls-21" cx="149.3" cy="63.55" r="10.83"/>
<path class="cls-18" d="M149,29.32h.6c2.46,0,4.46,2,4.46,4.46v27.4c0,2.46-2,4.46-4.46,4.46h-.6c-2.46,0-4.46-2-4.46-4.46v-27.4c0-2.46,2-4.46,4.46-4.46Z"/>
<path class="cls-21" d="m149.6 30.82c1.64 0 2.96 1.33 2.96 2.96v27.4c0 1.64-1.33 2.96-2.96 2.96h-0.6c-1.64 0-2.96-1.33-2.96-2.96v-27.4c0-1.64 1.33-2.96 2.96-2.96h0.6m0-3h-0.6c-3.29 0-5.96 2.67-5.96 5.96v27.4c0 3.29 2.67 5.96 5.96 5.96h0.6c3.29 0 5.96-2.67 5.96-5.96v-27.4c0-3.29-2.67-5.96-5.96-5.96z"/>
<rect class="cls-13" x="146.03" y="36.26" width="6.53" height="27.89" rx="3.26" ry="3.26"/>
<circle class="cls-21" cx="187.5" cy="63.55" r="10.83"/>
<rect class="cls-18" x="182.74" y="29.32" width="9.53" height="36.33" rx="4.46" ry="4.46"/>
<path class="cls-21" d="m187.8 30.82c1.64 0 2.96 1.33 2.96 2.96v27.4c0 1.64-1.33 2.96-2.96 2.96h-0.6c-1.64 0-2.96-1.33-2.96-2.96v-27.4c0-1.64 1.33-2.96 2.96-2.96h0.6m0-3h-0.6c-3.29 0-5.96 2.67-5.96 5.96v27.4c0 3.29 2.67 5.96 5.96 5.96h0.6c3.29 0 5.96-2.67 5.96-5.96v-27.4c0-3.29-2.67-5.96-5.96-5.96z"/>
<rect class="cls-13" x="184.24" y="36.26" width="6.53" height="27.89" rx="3.26" ry="3.26"/>
<circle class="cls-21" cx="225.71" cy="63.55" r="10.83"/>
<path class="cls-18" d="M225.41,29.32h.6c2.46,0,4.46,2,4.46,4.46v27.4c0,2.46-2,4.46-4.46,4.46h-.6c-2.46,0-4.46-2-4.46-4.46v-27.4c0-2.46,2-4.46,4.46-4.46Z"/>
<path class="cls-21" d="m226.01 30.82c1.64 0 2.96 1.33 2.96 2.96v27.4c0 1.64-1.33 2.96-2.96 2.96h-0.6c-1.64 0-2.96-1.33-2.96-2.96v-27.4c0-1.64 1.33-2.96 2.96-2.96h0.6m0-3h-0.6c-3.29 0-5.96 2.67-5.96 5.96v27.4c0 3.29 2.67 5.96 5.96 5.96h0.6c3.29 0 5.96-2.67 5.96-5.96v-27.4c0-3.29-2.67-5.96-5.96-5.96z"/>
<rect class="cls-13" x="222.45" y="36.26" width="6.53" height="27.89" rx="3.26" ry="3.26"/>
<circle class="cls-21" cx="263.92" cy="63.55" r="10.83"/>
<rect class="cls-18" x="259.15" y="29.32" width="9.53" height="36.33" rx="4.46" ry="4.46"/>
<path class="cls-21" d="m264.22 30.82c1.64 0 2.96 1.33 2.96 2.96v27.4c0 1.64-1.33 2.96-2.96 2.96h-0.6c-1.64 0-2.96-1.33-2.96-2.96v-27.4c0-1.64 1.33-2.96 2.96-2.96h0.6m0-3h-0.6c-3.29 0-5.96 2.67-5.96 5.96v27.4c0 3.29 2.67 5.96 5.96 5.96h0.6c3.29 0 5.96-2.67 5.96-5.96v-27.4c0-3.29-2.67-5.96-5.96-5.96z"/>
<rect class="cls-13" x="260.65" y="36.26" width="6.53" height="27.89" rx="3.26" ry="3.26"/>
<circle class="cls-21" cx="302.12" cy="63.55" r="10.83"/>
<path class="cls-18" d="M301.82,29.32h.6c2.46,0,4.46,2,4.46,4.46v27.4c0,2.46-2,4.46-4.46,4.46h-.6c-2.46,0-4.46-2-4.46-4.46v-27.4c0-2.46,2-4.46,4.46-4.46Z"/>
<path class="cls-21" d="m302.42 30.82c1.64 0 2.96 1.33 2.96 2.96v27.4c0 1.64-1.33 2.96-2.96 2.96h-0.6c-1.64 0-2.96-1.33-2.96-2.96v-27.4c0-1.64 1.33-2.96 2.96-2.96h0.6m0-3h-0.6c-3.29 0-5.96 2.67-5.96 5.96v27.4c0 3.29 2.67 5.96 5.96 5.96h0.6c3.29 0 5.96-2.67 5.96-5.96v-27.4c0-3.29-2.67-5.96-5.96-5.96z"/>
<rect class="cls-13" x="298.86" y="36.26" width="6.53" height="27.89" rx="3.26" ry="3.26"/>
<circle class="cls-21" cx="340.33" cy="63.55" r="10.83"/>
<rect class="cls-18" x="335.57" y="29.32" width="9.53" height="36.33" rx="4.46" ry="4.46"/>
<path class="cls-21" d="m340.63 30.82c1.64 0 2.96 1.33 2.96 2.96v27.4c0 1.64-1.33 2.96-2.96 2.96h-0.6c-1.64 0-2.96-1.33-2.96-2.96v-27.4c0-1.64 1.33-2.96 2.96-2.96h0.6m0-3h-0.6c-3.29 0-5.96 2.67-5.96 5.96v27.4c0 3.29 2.67 5.96 5.96 5.96h0.6c3.29 0 5.96-2.67 5.96-5.96v-27.4c0-3.29-2.67-5.96-5.96-5.96z"/>
<rect class="cls-13" x="337.07" y="36.26" width="6.53" height="27.89" rx="3.26" ry="3.26"/>
<circle class="cls-21" cx="378.53" cy="63.55" r="10.83"/>
<path class="cls-18" d="M378.23,29.32h.6c2.46,0,4.46,2,4.46,4.46v27.4c0,2.46-2,4.46-4.46,4.46h-.6c-2.46,0-4.46-2-4.46-4.46v-27.4c0-2.46,2-4.46,4.46-4.46Z"/>
<path class="cls-21" d="m378.83 30.82c1.64 0 2.96 1.33 2.96 2.96v27.4c0 1.64-1.33 2.96-2.96 2.96h-0.6c-1.64 0-2.96-1.33-2.96-2.96v-27.4c0-1.64 1.33-2.96 2.96-2.96h0.6m0-3h-0.6c-3.29 0-5.96 2.67-5.96 5.96v27.4c0 3.29 2.67 5.96 5.96 5.96h0.6c3.29 0 5.96-2.67 5.96-5.96v-27.4c0-3.29-2.67-5.96-5.96-5.96z"/>
<rect class="cls-13" x="375.27" y="36.26" width="6.53" height="27.89" rx="3.26" ry="3.26"/>
<circle class="cls-21" cx="416.74" cy="63.55" r="10.83"/>
<path class="cls-18" d="M416.44,29.32h.6c2.46,0,4.46,2,4.46,4.46v27.4c0,2.46-2,4.46-4.46,4.46h-.6c-2.46,0-4.46-2-4.46-4.46v-27.4c0-2.46,2-4.46,4.46-4.46Z"/>
<path class="cls-21" d="m417.04 30.82c1.64 0 2.96 1.33 2.96 2.96v27.4c0 1.64-1.33 2.96-2.96 2.96h-0.6c-1.64 0-2.96-1.33-2.96-2.96v-27.4c0-1.64 1.33-2.96 2.96-2.96h0.6m0-3h-0.6c-3.29 0-5.96 2.67-5.96 5.96v27.4c0 3.29 2.67 5.96 5.96 5.96h0.6c3.29 0 5.96-2.67 5.96-5.96v-27.4c0-3.29-2.67-5.96-5.96-5.96z"/>
<rect class="cls-13" x="413.48" y="36.26" width="6.53" height="27.89" rx="3.26" ry="3.26"/>
<rect class="cls-11" x="223.38" y="96.24" width="34.37" height="28.08"/>
<rect class="cls-11" x="265.83" y="96.24" width="34.37" height="28.08"/>
<rect class="cls-11" x="308.29" y="96.24" width="34.37" height="28.08"/>
<rect class="cls-14" transform="translate(428.71 -222.24) rotate(90)" x="322.47" y="90.05" width="6" height="26.37"/>
<rect class="cls-11" x="350.75" y="96.24" width="34.37" height="28.08"/>
<rect class="cls-14" transform="translate(471.17 -264.7) rotate(90)" x="364.93" y="90.05" width="6" height="26.37"/>
<rect class="cls-11" x="393.2" y="96.24" width="34.37" height="28.08"/>
<rect class="cls-14" transform="translate(513.62 -307.15) rotate(90)" x="407.39" y="90.05" width="6" height="26.37"/>
<rect class="cls-11" x="138.47" y="133.02" width="34.37" height="28.08"/>
<rect class="cls-14" transform="translate(295.67 -15.63) rotate(90)" x="152.65" y="126.84" width="6" height="26.37"/>
<rect class="cls-11" x="180.92" y="133.02" width="34.37" height="28.08"/>
<rect class="cls-14" transform="translate(338.13 -58.08) rotate(90)" x="195.11" y="126.84" width="6" height="26.37"/>
<rect class="cls-11" x="350.75" y="133.02" width="34.37" height="28.08"/>
<rect class="cls-19" transform="translate(507.95 -227.91) rotate(90)" x="364.93" y="126.84" width="6" height="26.37"/>
<rect class="cls-11" x="393.2" y="133.02" width="34.37" height="28.08"/>
<rect class="cls-19" transform="translate(550.41 -270.37) rotate(90)" x="407.39" y="126.84" width="6" height="26.37"/>
<rect class="cls-11" x="223.38" y="133.02" width="34.37" height="28.08"/>
<rect class="cls-14" transform="translate(380.58 -100.54) rotate(90)" x="237.56" y="126.84" width="6" height="26.37"/>
<rect class="cls-19" transform="translate(389.58 -91.54) rotate(90)" x="237.56" y="135.84" width="6" height="26.37"/>
<rect class="cls-11" x="265.83" y="133.02" width="34.37" height="28.08"/>
<rect class="cls-14" transform="translate(423.04 -143) rotate(90)" x="280.02" y="126.84" width="6" height="26.37"/>
<rect class="cls-19" transform="translate(432.04 -134) rotate(90)" x="280.02" y="135.84" width="6" height="26.37"/>
<rect class="cls-11" x="308.29" y="133.02" width="34.37" height="28.08"/>
<rect class="cls-14" transform="translate(465.5 -185.45) rotate(90)" x="322.47" y="126.84" width="6" height="26.37"/>
<rect class="cls-19" transform="translate(474.5 -176.45) rotate(90)" x="322.47" y="135.84" width="6" height="26.37"/>
<rect class="cls-11" x="265.83" y="169.81" width="34.37" height="28.08"/>
<rect class="cls-19" transform="translate(459.83 -106.21) rotate(90)" x="280.02" y="163.62" width="6" height="26.37"/>
<rect class="cls-12" transform="translate(468.83 -97.21) rotate(90)" x="280.02" y="172.62" width="6" height="26.37"/>
<rect class="cls-11" x="138.47" y="169.81" width="34.37" height="28.08"/>
<rect class="cls-19" transform="translate(332.46 21.16) rotate(90)" x="152.65" y="163.62" width="6" height="26.37"/>
<rect class="cls-11" x="180.92" y="169.81" width="34.37" height="28.08"/>
<rect class="cls-19" transform="translate(374.91 -21.3) rotate(90)" x="195.11" y="163.62" width="6" height="26.37"/>
<rect class="cls-11" x="223.38" y="169.81" width="34.37" height="28.08"/>
<rect class="cls-19" transform="translate(417.37 -63.75) rotate(90)" x="237.56" y="163.62" width="6" height="26.37"/>
<rect class="cls-11" x="308.29" y="169.81" width="34.37" height="28.08"/>
<rect class="cls-12" transform="translate(502.28 -148.67) rotate(90)" x="322.47" y="163.62" width="6" height="26.37"/>
<rect class="cls-11" x="350.75" y="169.81" width="34.37" height="28.08"/>
<rect class="cls-12" transform="translate(544.74 -191.12) rotate(90)" x="364.93" y="163.62" width="6" height="26.37"/>
<rect class="cls-11" x="393.2" y="169.81" width="34.37" height="28.08"/>
<rect class="cls-12" transform="translate(587.2 -233.58) rotate(90)" x="407.39" y="163.62" width="6" height="26.37"/>
<rect class="cls-11" x="138.47" y="206.6" width="34.37" height="28.08"/>
<rect class="cls-12" transform="translate(369.24 57.95) rotate(90)" x="152.65" y="200.41" width="6" height="26.37"/>
<rect class="cls-11" x="180.92" y="206.6" width="34.37" height="28.08"/>
<rect class="cls-12" transform="translate(411.7 15.49) rotate(90)" x="195.11" y="200.41" width="6" height="26.37"/>
<rect class="cls-11" x="223.38" y="206.6" width="34.37" height="28.08"/>
<rect class="cls-12" transform="translate(454.16 -26.97) rotate(90)" x="237.56" y="200.41" width="6" height="26.37"/>
<rect class="cls-11" x="265.83" y="206.6" width="34.37" height="28.08"/>
<rect class="cls-12" transform="translate(496.61 -69.42) rotate(90)" x="280.02" y="200.41" width="6" height="26.37"/>
<rect class="cls-11" x="308.29" y="206.6" width="34.37" height="28.08"/>
<rect class="cls-11" x="350.75" y="206.6" width="34.37" height="28.08"/>
<rect class="cls-11" x="393.2" y="206.6" width="34.37" height="28.08"/>
<rect class="cls-11" x="138.47" y="243.38" width="34.37" height="28.08"/>
<rect class="cls-11" x="180.92" y="243.38" width="34.37" height="28.08"/>
<rect class="cls-11" x="223.38" y="243.38" width="34.37" height="28.08"/>
<rect class="cls-11" x="265.83" y="243.38" width="34.37" height="28.08"/>
<rect class="cls-11" x="308.29" y="243.38" width="34.37" height="28.08"/>
<path class="cls-21" d="M707.52,282.08c3.41,8.98-1.3,18.15-7.26,23.9-1.89,1.88-5.41,5.28-7.36,7.17-2.66,2.62-5.84,5.58-7.52,7.43-1.16,1.35-1.82,2.15-2.2,3.34-.05.19-.08-.14-.46-.63-.19-.21-.24-.2-.06,0,2.1,1.82,5.46,4.01,7.4,6.45,9.84,11.27,9.39,29.61-1.34,40.05-9.44,8.53-22-4.06-13.62-13.62,2.99-3.66,2.51-10.32-1.42-13.11-1.5-1.07-3.32-2.1-5.14-3.66-2.79-2.2-5.67-6.43-6.52-10.08-2.35-8.12.94-17.11,5.93-23.1,2.65-3.36,5.61-6.28,8.27-9.27,1.69-1.85,4.99-5.43,6.64-7.27.52-.53,1.92-2.52,1.69-2.47-.04.04-.23.38-.32,1.07-.09.67,0,1.67.29,2.45-2.39-6.35.81-13.43,7.16-15.82,6.35-2.39,13.43.81,15.82,7.16h0Z"/>
<path class="cls-17" d="m670.72 106.4c-26.88 0-48.75-21.87-48.75-48.75s21.87-48.75 48.75-48.75 48.75 21.87 48.75 48.75-21.87 48.75-48.75 48.75z"/>
<path class="cls-21" d="m670.72 10.9c25.82 0 46.75 20.93 46.75 46.75s-20.93 46.75-46.75 46.75-46.75-20.93-46.75-46.75 20.93-46.75 46.75-46.75m0-4c-27.98 0-50.75 22.77-50.75 50.75s22.77 50.75 50.75 50.75 50.75-22.77 50.75-50.75-22.77-50.75-50.75-50.75z"/>
<ellipse class="cls-13" cx="673.83" cy="58.97" rx="43.64" ry="45.43"/>
<line class="cls-4" x1="697.69" x2="662.52" y1="29.15" y2="66"/>
<polyline class="cls-10" points="668.13 17.7 670.72 57.62 670.72 84.31"/>
<circle class="cls-21" cx="670.72" cy="57.65" r="4.87"/>
<path class="cls-21" d="m35.47 216.21c14.55 0 26.34 10.79 26.34 24.1s-11.79 24.1-26.34 24.1-26.34-10.79-26.34-24.1 11.79-24.1 26.34-24.1m0-4c-16.73 0-30.34 12.6-30.34 28.1s13.61 28.1 30.34 28.1 30.34-12.6 30.34-28.1-13.61-28.1-30.34-28.1z"/>
<rect class="cls-8" x="81.09" y="151.46" width="18.28" height="60.77"/>
<rect class="cls-13" x="81.09" y="153.58" width="18.28" height="58.65"/>
<rect class="cls-9" x="84.53" y="153.5" width="14.83" height="58.73"/>
<polyline class="cls-6" points="80.66 150.31 90.17 124.16 99.69 150.31"/>
<polyline class="cls-21" points="85.61 136.69 90.17 124.16 94.73 136.69"/>
<rect class="cls-8" x="108.61" y="166.94" width="18.28" height="60.77"/>
<rect class="cls-13" x="108.61" y="169.06" width="18.28" height="58.65"/>
<rect class="cls-12" x="112.06" y="168.98" width="14.83" height="58.73"/>
<polyline class="cls-6" points="108.18 165.79 117.69 139.64 127.21 165.79"/>
<polyline class="cls-21" points="113.13 152.17 117.69 139.64 122.25 152.17"/>
<rect class="cls-8" x="54.14" y="175.25" width="18.28" height="60.77"/>
<rect class="cls-13" x="54.14" y="177.38" width="18.28" height="58.65"/>
<rect class="cls-14" x="57.59" y="177.3" width="14.83" height="58.73"/>
<polyline class="cls-6" points="53.71 174.1 63.23 147.95 72.74 174.1"/>
<polyline class="cls-21" points="58.67 160.49 63.23 147.95 67.79 160.49"/>
<rect class="cls-18" x="44.54" y="194.12" width="92.52" height="98.29" rx="7.54" ry="7.54"/>
<path class="cls-21" d="m129.52 196.12c3.06 0 5.54 2.48 5.54 5.54v83.21c0 3.06-2.48 5.54-5.54 5.54h-77.44c-3.06 0-5.54-2.48-5.54-5.54v-83.21c0-3.06 2.48-5.54 5.54-5.54h77.45m-0.01-4h-77.44c-5.26 0-9.54 4.28-9.54 9.54v83.21c0 5.26 4.28 9.54 9.54 9.54h77.45c5.26 0 9.54-4.28 9.54-9.54v-83.21c0-5.26-4.28-9.54-9.54-9.54z"/>
<rect class="cls-13" x="53.4" y="201.86" width="81.66" height="88.55" rx="5.54" ry="5.54"/>
<path class="cls-9" d="m240.37 104.62"/>
<path class="cls-9" d="M243.71,111.3c-2.12,2.55-4.29,5.05-6.48,7.52-1.85,2.06-3.74,4.1-5.71,6.06-.59.59-1.55.63-2.2.09l-2.73-2.27c-.65-.54-.78-1.48-.31-2.17,3.4-4.93,7.28-9.74,11.08-14.33l.12-.14c2.12-2.55,4.29-5.05,6.48-7.52,1.85-2.06,3.74-4.1,5.71-6.06.59-.59,1.55-.63,2.2-.09l2.73,2.27c.65.54.78,1.48.31,2.17-3.4,4.93-7.28,9.74-11.08,14.33l-.12.14Z"/>
<path class="cls-9" d="M237.98,111.78c-2.55-2.12-5.05-4.29-7.52-6.48-2.06-1.85-4.1-3.74-6.06-5.71-.59-.59-.63-1.55-.09-2.2l2.27-2.73c.54-.65,1.48-.78,2.17-.31,4.93,3.4,9.74,7.28,14.33,11.08l.14.12c2.55,2.12,5.05,4.29,7.52,6.48,2.06,1.85,4.1,3.74,6.06,5.71.59.59.63,1.55.09,2.2l-2.27,2.73c-.54.65-1.48.78-2.17.31-4.93-3.4-9.74-7.28-14.33-11.08l-.14-.12Z"/>
<path class="cls-9" d="m282.38 104.64"/>
<path class="cls-9" d="M286.1,111.12c-1.98,2.66-4,5.29-6.04,7.88-1.73,2.17-3.5,4.31-5.35,6.38-.56.63-1.51.72-2.19.22l-2.85-2.11c-.68-.5-.87-1.43-.43-2.15,3.11-5.12,6.71-10.14,10.24-14.94l.11-.15c1.98-2.66,4-5.29,6.04-7.88,1.73-2.17,3.5-4.31,5.35-6.38.56-.63,1.51-.72,2.19-.22l2.85,2.11c.68.5.87,1.43.43,2.15-3.11,5.12-6.71,10.14-10.24,14.94l-.11.15Z"/>
<path class="cls-9" d="M280.41,111.93c-2.66-1.98-5.29-4-7.88-6.04-2.17-1.73-4.31-3.5-6.38-5.35-.63-.56-.72-1.51-.22-2.19l2.11-2.85c.5-.68,1.43-.87,2.15-.43,5.12,3.11,10.14,6.71,14.94,10.24l.15.11c2.66,1.98,5.29,4,7.88,6.04,2.17,1.73,4.31,3.5,6.38,5.35.63.56.72,1.51.22,2.19l-2.11,2.85c-.5.68-1.43.87-2.15.43-5.12-3.11-10.14-6.71-14.94-10.24l-.15-.11Z"/>
<path class="cls-3" d="M317.56,206.1s32.46-12.94,34.97,17.91c1.91,23.4-55.31,27.06-54.95-2.65.17-13.75,19.61-21.98,30.58-23.33"/>
<path class="cls-3" d="m176.9 119.02c-6.11 5.57-10.51 12.99-12.47 21.02"/>
<polyline class="cls-3" points="159.9 134.96 162.91 145.31 171.76 139.67"/>
<text class="cls-7" transform="translate(180.88 115.69) rotate(8.99)"><tspan x="0" y="0">?</tspan></text>
<text class="cls-5" transform="translate(314.59 227.96) rotate(6.55)"><tspan x="0" y="0">!!!</tspan></text>
<path class="cls-3" d="M395.84,144.78c3.59-2.71,6.84-5.86,9.67-9.35.56,3.11.79,6.28.67,9.44,1.33-2.27,3.22-4.21,5.46-5.6-.7,2.34-1.18,4.74-1.45,7.17,2.65-2.37,5.29-4.74,7.94-7.11-.49,2.21-.68,4.49-.54,6.75,1.16-2.54,2.67-4.92,4.48-7.05"/>
<g class="cls-22">
<polyline class="cls-2" points="58.68 375.53 80.68 320.53 98.28 320.53 71.88 375.53"/>
<polygon class="cls-21" points="90.71 336.31 98.28 320.53 80.68 320.53 74.37 336.31"/>
<polyline class="cls-2" points="850.67 375.53 828.67 320.53 811.07 320.53 837.47 375.53"/>
<polygon class="cls-16" points="818.65 336.31 811.07 320.53 828.67 320.53 834.98 336.31"/>
<rect class="cls-13" x="12.68" y="293.45" width="884" height="30.4" rx="6" ry="6"/>
<path class="cls-21" d="m890.68 295.45c2.21 0 4 1.79 4 4v18.4c0 2.21-1.79 4-4 4h-872c-2.21 0-4-1.79-4-4v-18.4c0-2.21 1.79-4 4-4h872m0-4h-872c-4.41 0-8 3.59-8 8v18.4c0 4.41 3.59 8 8 8h872c4.41 0 8-3.59 8-8v-18.4c0-4.41-3.59-8-8-8z"/>
<rect class="cls-15" x="14.68" y="299.85" width="880" height="22" rx="4" ry="4"/>
</g>
</svg>
