<svg id="header-image" width="728" height="400" viewBox="0 0 728 400" xmlns="http://www.w3.org/2000/svg">
  <defs>
    <clipPath id="a">
      <path fill="none" d="M-23.43 103.53h740.89v294.78H-23.43z"/>
    </clipPath>
    <style>
      .cls-2,.cls-3{fill:none}.cls-6{stroke-miterlimit:10}.cls-8,.cls-9{fill:#e61f2a}.cls-11,.cls-2,.cls-3,.cls-6,.cls-8{stroke-linecap:round}.cls-11,.cls-2,.cls-6,.cls-8{stroke:#333}.cls-2,.cls-3,.cls-8{stroke-width:4px}.cls-11,.cls-2,.cls-3,.cls-8{stroke-linejoin:round}.cls-12{fill:#fac800}.cls-13,.cls-6{fill:#fff}.cls-6{stroke-width:3px}.cls-14{fill:#6fb7ff}.cls-3{stroke:#e61f2a}.cls-18{fill:#d8eaff}.cls-19{fill:#00c98a}.cls-11{fill:#f2f2f2;stroke-width:2.5px}.cls-21{fill:#333}
    </style>
  </defs>
  <path d="M450.85 293.01c-4.13-14.28-22.17-10.52-7.46-38.27 3.18-5.99 6.67-10.2 10.46-12.97 1.88-1.38 8.49-2.82 13.16-3.25s13.15-.75 14.84-.45c25.79 4.58 58.35 22.36 98-12.64 55.98-49.42 131.21-15.77 131.21 43.6 0 8.37-.88 16.22-2.56 23.55l-257.64.44z" class="cls-21"/>
  <path d="M469.64 250.54c-5.51-2.26 12.01-18.91 16.27-27.06.87-1.66 3.26-1.57 4.02.14l13.91 31.12-34.2-4.2Z" class="cls-21"/>
  <path d="M470.02 248.66c-4.43-4.78-17.8-13.4-23.77-18.38-1.61-1.34-4.05-.19-4.05 1.91v27.18c0 1.75 1.76 2.94 3.38 2.3l21.08-8.36c1.61-.64 4.53-3.37 3.35-4.64ZM405.28 292.6c-4.57-14.2 17.95-14.22 60.13-12.03 44.54 2.32 82.68 4.57 82.68 4.57l-2.72 4.76-140.1 2.69z" class="cls-21"/>
  <path d="M674.02 221.75c-7.29-2.57-14.17-5.03-21.64-6.56-7.43-1.78-14.62-2.07-22.38-2.52l-.07-.31c11.38-2.75 23.55-1.51 34.2 3.35 3.55 1.58 6.96 3.48 10.09 5.79l-.2.25zM119.7 292.48c-.83 0-1.5-.67-1.5-1.5V45.65c0-.83.67-1.5 1.5-1.5h337.95c.83 0 1.5.67 1.5 1.5v219.03c0 .44-.19.86-.53 1.15l-31.13 26.3c-.27.23-.61.35-.97.35H119.7Z" class="cls-13"/>
  <path d="M457.65 45.65v219.03l-31.13 26.3H119.7V45.65h337.95m0-3H119.7c-1.66 0-3 1.34-3 3v245.33c0 1.66 1.34 3 3 3h306.82c.71 0 1.39-.25 1.94-.71l31.13-26.3c.67-.57 1.06-1.41 1.06-2.29V45.65c0-1.66-1.34-3-3-3Z" class="cls-21"/>
  <path fill="#f2f2f2" d="M426.52 290.98H124.83V50.77h332.82v213.91z"/>
  <path d="M426.63 292.48a1.509 1.509 0 0 1-1.5-1.5v-26.66c0-.4.16-.79.45-1.07.28-.28.66-.43 1.05-.43h.02c.29 0 28.57.42 30.99.42a1.496 1.496 0 0 1 .97 2.64l-31.01 26.24c-.28.23-.62.35-.97.35Z" class="cls-13"/>
  <path d="M426.63 264.31s28.56.42 31.01.42l-31.01 26.24v-26.66m0-3c-.79 0-1.54.31-2.11.86-.57.56-.89 1.33-.89 2.14v26.66c0 1.17.68 2.23 1.74 2.72.4.19.83.28 1.26.28.7 0 1.39-.24 1.94-.71l31.01-26.24c.96-.81 1.31-2.14.88-3.32a3.005 3.005 0 0 0-2.82-1.97c-2.4 0-30.68-.42-30.97-.42h-.04Z" class="cls-21"/>
  <circle cx="149.3" cy="63.55" r="10.83" class="cls-21"/>
  <path d="M149 29.32h.6c2.46 0 4.46 2 4.46 4.46v27.4c0 2.46-2 4.46-4.46 4.46h-.6c-2.46 0-4.46-2-4.46-4.46v-27.4c0-2.46 2-4.46 4.46-4.46Z" class="cls-18"/>
  <path d="M149.6 30.82a2.96 2.96 0 0 1 2.96 2.96v27.4a2.96 2.96 0 0 1-2.96 2.96h-.6a2.96 2.96 0 0 1-2.96-2.96v-27.4a2.96 2.96 0 0 1 2.96-2.96h.6m0-3h-.6c-3.29 0-5.96 2.67-5.96 5.96v27.4c0 3.29 2.67 5.96 5.96 5.96h.6c3.29 0 5.96-2.67 5.96-5.96v-27.4c0-3.29-2.67-5.96-5.96-5.96z" class="cls-21"/>
  <rect width="6.53" height="27.89" x="146.03" y="36.26" class="cls-13" rx="3.26" ry="3.26"/>
  <circle cx="187.5" cy="63.55" r="10.83" class="cls-21"/>
  <rect width="9.53" height="36.33" x="182.74" y="29.32" class="cls-18" rx="4.46" ry="4.46"/>
  <path d="M187.8 30.82a2.96 2.96 0 0 1 2.96 2.96v27.4a2.96 2.96 0 0 1-2.96 2.96h-.6a2.96 2.96 0 0 1-2.96-2.96v-27.4a2.96 2.96 0 0 1 2.96-2.96h.6m0-3h-.6c-3.29 0-5.96 2.67-5.96 5.96v27.4c0 3.29 2.67 5.96 5.96 5.96h.6c3.29 0 5.96-2.67 5.96-5.96v-27.4c0-3.29-2.67-5.96-5.96-5.96z" class="cls-21"/>
  <rect width="6.53" height="27.89" x="184.24" y="36.26" class="cls-13" rx="3.26" ry="3.26"/>
  <circle cx="225.71" cy="63.55" r="10.83" class="cls-21"/>
  <path d="M225.41 29.32h.6c2.46 0 4.46 2 4.46 4.46v27.4c0 2.46-2 4.46-4.46 4.46h-.6c-2.46 0-4.46-2-4.46-4.46v-27.4c0-2.46 2-4.46 4.46-4.46Z" class="cls-18"/>
  <path d="M226.01 30.82a2.96 2.96 0 0 1 2.96 2.96v27.4a2.96 2.96 0 0 1-2.96 2.96h-.6a2.96 2.96 0 0 1-2.96-2.96v-27.4a2.96 2.96 0 0 1 2.96-2.96h.6m0-3h-.6c-3.29 0-5.96 2.67-5.96 5.96v27.4c0 3.29 2.67 5.96 5.96 5.96h.6c3.29 0 5.96-2.67 5.96-5.96v-27.4c0-3.29-2.67-5.96-5.96-5.96z" class="cls-21"/>
  <rect width="6.53" height="27.89" x="222.45" y="36.26" class="cls-13" rx="3.26" ry="3.26"/>
  <circle cx="263.92" cy="63.55" r="10.83" class="cls-21"/>
  <rect width="9.53" height="36.33" x="259.15" y="29.32" class="cls-18" rx="4.46" ry="4.46"/>
  <path d="M264.22 30.82a2.96 2.96 0 0 1 2.96 2.96v27.4a2.96 2.96 0 0 1-2.96 2.96h-.6a2.96 2.96 0 0 1-2.96-2.96v-27.4a2.96 2.96 0 0 1 2.96-2.96h.6m0-3h-.6c-3.29 0-5.96 2.67-5.96 5.96v27.4c0 3.29 2.67 5.96 5.96 5.96h.6c3.29 0 5.96-2.67 5.96-5.96v-27.4c0-3.29-2.67-5.96-5.96-5.96z" class="cls-21"/>
  <rect width="6.53" height="27.89" x="260.65" y="36.26" class="cls-13" rx="3.26" ry="3.26"/>
  <circle cx="302.12" cy="63.55" r="10.83" class="cls-21"/>
  <path d="M301.82 29.32h.6c2.46 0 4.46 2 4.46 4.46v27.4c0 2.46-2 4.46-4.46 4.46h-.6c-2.46 0-4.46-2-4.46-4.46v-27.4c0-2.46 2-4.46 4.46-4.46Z" class="cls-18"/>
  <path d="M302.42 30.82a2.96 2.96 0 0 1 2.96 2.96v27.4a2.96 2.96 0 0 1-2.96 2.96h-.6a2.96 2.96 0 0 1-2.96-2.96v-27.4a2.96 2.96 0 0 1 2.96-2.96h.6m0-3h-.6c-3.29 0-5.96 2.67-5.96 5.96v27.4c0 3.29 2.67 5.96 5.96 5.96h.6c3.29 0 5.96-2.67 5.96-5.96v-27.4c0-3.29-2.67-5.96-5.96-5.96z" class="cls-21"/>
  <rect width="6.53" height="27.89" x="298.86" y="36.26" class="cls-13" rx="3.26" ry="3.26"/>
  <circle cx="340.33" cy="63.55" r="10.83" class="cls-21"/>
  <rect width="9.53" height="36.33" x="335.57" y="29.32" class="cls-18" rx="4.46" ry="4.46"/>
  <path d="M340.63 30.82a2.96 2.96 0 0 1 2.96 2.96v27.4a2.96 2.96 0 0 1-2.96 2.96h-.6a2.96 2.96 0 0 1-2.96-2.96v-27.4a2.96 2.96 0 0 1 2.96-2.96h.6m0-3h-.6c-3.29 0-5.96 2.67-5.96 5.96v27.4c0 3.29 2.67 5.96 5.96 5.96h.6c3.29 0 5.96-2.67 5.96-5.96v-27.4c0-3.29-2.67-5.96-5.96-5.96z" class="cls-21"/>
  <rect width="6.53" height="27.89" x="337.07" y="36.26" class="cls-13" rx="3.26" ry="3.26"/>
  <circle cx="378.53" cy="63.55" r="10.83" class="cls-21"/>
  <path d="M378.23 29.32h.6c2.46 0 4.46 2 4.46 4.46v27.4c0 2.46-2 4.46-4.46 4.46h-.6c-2.46 0-4.46-2-4.46-4.46v-27.4c0-2.46 2-4.46 4.46-4.46Z" class="cls-18"/>
  <path d="M378.83 30.82a2.96 2.96 0 0 1 2.96 2.96v27.4a2.96 2.96 0 0 1-2.96 2.96h-.6a2.96 2.96 0 0 1-2.96-2.96v-27.4a2.96 2.96 0 0 1 2.96-2.96h.6m0-3h-.6c-3.29 0-5.96 2.67-5.96 5.96v27.4c0 3.29 2.67 5.96 5.96 5.96h.6c3.29 0 5.96-2.67 5.96-5.96v-27.4c0-3.29-2.67-5.96-5.96-5.96z" class="cls-21"/>
  <rect width="6.53" height="27.89" x="375.27" y="36.26" class="cls-13" rx="3.26" ry="3.26"/>
  <circle cx="416.74" cy="63.55" r="10.83" class="cls-21"/>
  <path d="M416.44 29.32h.6c2.46 0 4.46 2 4.46 4.46v27.4c0 2.46-2 4.46-4.46 4.46h-.6c-2.46 0-4.46-2-4.46-4.46v-27.4c0-2.46 2-4.46 4.46-4.46Z" class="cls-18"/>
  <path d="M417.04 30.82a2.96 2.96 0 0 1 2.96 2.96v27.4a2.96 2.96 0 0 1-2.96 2.96h-.6a2.96 2.96 0 0 1-2.96-2.96v-27.4a2.96 2.96 0 0 1 2.96-2.96h.6m0-3h-.6c-3.29 0-5.96 2.67-5.96 5.96v27.4c0 3.29 2.67 5.96 5.96 5.96h.6c3.29 0 5.96-2.67 5.96-5.96v-27.4c0-3.29-2.67-5.96-5.96-5.96z" class="cls-21"/>
  <rect width="6.53" height="27.89" x="413.48" y="36.26" class="cls-13" rx="3.26" ry="3.26"/>
  <path d="M223.38 96.24h34.37v28.08h-34.37zM265.83 96.24h34.37v28.08h-34.37zM308.29 96.24h34.37v28.08h-34.37z" class="cls-11"/>
  <path d="M338.66 100.23v6h-26.37v-6z" class="cls-14"/>
  <path d="M350.75 96.24h34.37v28.08h-34.37z" class="cls-11"/>
  <path d="M381.12 100.23v6h-26.37v-6z" class="cls-14"/>
  <path d="M393.2 96.24h34.37v28.08H393.2z" class="cls-11"/>
  <path d="M423.57 100.24v6H397.2v-6z" class="cls-14"/>
  <path d="M138.47 133.02h34.37v28.08h-34.37z" class="cls-11"/>
  <path d="M168.83 137.02v6h-26.37v-6z" class="cls-14"/>
  <path d="M180.92 133.02h34.37v28.08h-34.37z" class="cls-11"/>
  <path d="M211.29 137.03v6h-26.37v-6z" class="cls-14"/>
  <path d="M350.75 133.02h34.37v28.08h-34.37z" class="cls-11"/>
  <path d="M381.11 137.02v6h-26.37v-6z" class="cls-19"/>
  <path d="M393.2 133.02h34.37v28.08H393.2z" class="cls-11"/>
  <path d="M423.57 137.02v6H397.2v-6z" class="cls-19"/>
  <path d="M223.38 133.02h34.37v28.08h-34.37z" class="cls-11"/>
  <path d="M253.74 137.02v6h-26.37v-6z" class="cls-14"/>
  <path d="M253.74 146.02v6h-26.37v-6z" class="cls-19"/>
  <path d="M265.83 133.02h34.37v28.08h-34.37z" class="cls-11"/>
  <path d="M296.2 137.02v6h-26.37v-6z" class="cls-14"/>
  <path d="M296.2 146.02v6h-26.37v-6z" class="cls-19"/>
  <path d="M308.29 133.02h34.37v28.08h-34.37z" class="cls-11"/>
  <path d="M338.66 137.02v6h-26.37v-6z" class="cls-14"/>
  <path d="M338.66 146.02v6h-26.37v-6z" class="cls-19"/>
  <path d="M265.83 169.81h34.37v28.08h-34.37z" class="cls-11"/>
  <path d="M296.21 173.81v6h-26.37v-6z" class="cls-19"/>
  <path d="M296.21 182.81v6h-26.37v-6z" class="cls-12"/>
  <path d="M138.47 169.81h34.37v28.08h-34.37z" class="cls-11"/>
  <path d="M168.84 173.81v6h-26.37v-6z" class="cls-19"/>
  <path d="M180.92 169.81h34.37v28.08h-34.37z" class="cls-11"/>
  <path d="M211.29 173.81v6h-26.37v-6z" class="cls-19"/>
  <path d="M223.38 169.81h34.37v28.08h-34.37z" class="cls-11"/>
  <path d="M253.75 173.81v6h-26.37v-6z" class="cls-19"/>
  <path d="M308.29 169.81h34.37v28.08h-34.37z" class="cls-11"/>
  <path d="M338.66 173.8v6h-26.37v-6z" class="cls-12"/>
  <path d="M350.75 169.81h34.37v28.08h-34.37z" class="cls-11"/>
  <path d="M381.12 173.81v6h-26.37v-6z" class="cls-12"/>
  <path d="M393.2 169.81h34.37v28.08H393.2z" class="cls-11"/>
  <path d="M423.58 173.81v6h-26.37v-6z" class="cls-12"/>
  <path d="M138.47 206.6h34.37v28.08h-34.37z" class="cls-11"/>
  <path d="M168.83 210.6v6h-26.37v-6z" class="cls-12"/>
  <path d="M180.92 206.6h34.37v28.08h-34.37z" class="cls-11"/>
  <path d="M211.29 210.6v6h-26.37v-6z" class="cls-12"/>
  <path d="M223.38 206.6h34.37v28.08h-34.37z" class="cls-11"/>
  <path d="M253.75 210.59v6h-26.37v-6z" class="cls-12"/>
  <path d="M265.83 206.6h34.37v28.08h-34.37z" class="cls-11"/>
  <path d="M296.2 210.6v6h-26.37v-6z" class="cls-12"/>
  <path d="M308.29 206.6h34.37v28.08h-34.37zM350.75 206.6h34.37v28.08h-34.37zM393.2 206.6h34.37v28.08H393.2zM138.47 243.38h34.37v28.08h-34.37zM180.92 243.38h34.37v28.08h-34.37zM223.38 243.38h34.37v28.08h-34.37zM265.83 243.38h34.37v28.08h-34.37zM308.29 243.38h34.37v28.08h-34.37z" class="cls-11"/>
  <path d="M707.52 282.08c3.41 8.98-1.3 18.15-7.26 23.9-1.89 1.88-5.41 5.28-7.36 7.17-2.66 2.62-5.84 5.58-7.52 7.43-1.16 1.35-1.82 2.15-2.2 3.34-.05.19-.08-.14-.46-.63-.19-.21-.24-.2-.06 0 2.1 1.82 5.46 4.01 7.4 6.45 9.84 11.27 9.39 29.61-1.34 40.05-9.44 8.53-22-4.06-13.62-13.62 2.99-3.66 2.51-10.32-1.42-13.11-1.5-1.07-3.32-2.1-5.14-3.66-2.79-2.2-5.67-6.43-6.52-10.08-2.35-8.12.94-17.11 5.93-23.1 2.65-3.36 5.61-6.28 8.27-9.27 1.69-1.85 4.99-5.43 6.64-7.27.52-.53 1.92-2.52 1.69-2.47-.04.04-.23.38-.32 1.07-.09.67 0 1.67.29 2.45-2.39-6.35.81-13.43 7.16-15.82 6.35-2.39 13.43.81 15.82 7.16Z" class="cls-21"/>
  <path fill="#d8eaff" d="M670.72 106.4c-26.88 0-48.75-21.87-48.75-48.75S643.84 8.9 670.72 8.9s48.75 21.87 48.75 48.75-21.87 48.75-48.75 48.75z"/>
  <path d="M670.72 10.9c25.82 0 46.75 20.93 46.75 46.75s-20.93 46.75-46.75 46.75-46.75-20.93-46.75-46.75S644.9 10.9 670.72 10.9m0-4c-27.98 0-50.75 22.77-50.75 50.75s22.77 50.75 50.75 50.75 50.75-22.77 50.75-50.75S698.7 6.9 670.72 6.9z" class="cls-21"/>
  <ellipse cx="673.83" cy="58.97" class="cls-13" rx="43.64" ry="45.43"/>
  <path fill="none" stroke="#00c98a" stroke-linecap="round" stroke-linejoin="round" stroke-width="3" d="M697.69 29.15 662.52 66"/>
  <path fill="#fff" stroke="#333" stroke-linecap="round" stroke-linejoin="round" stroke-width="4" d="m668.13 17.7 2.59 39.92v26.69"/>
  <circle cx="670.72" cy="57.65" r="4.87" class="cls-21"/>
  <path d="M35.47 216.21c14.55 0 26.34 10.79 26.34 24.1s-11.79 24.1-26.34 24.1-26.34-10.79-26.34-24.1 11.79-24.1 26.34-24.1m0-4c-16.73 0-30.34 12.6-30.34 28.1s13.61 28.1 30.34 28.1 30.34-12.6 30.34-28.1-13.61-28.1-30.34-28.1z" class="cls-21"/>
  <path d="M81.09 151.46h18.28v60.77H81.09z" class="cls-8"/>
  <path d="M81.09 153.58h18.28v58.65H81.09z" class="cls-13"/>
  <path d="M84.53 153.5h14.83v58.73H84.53z" class="cls-9"/>
  <path d="m80.66 150.31 9.51-26.15 9.52 26.15" class="cls-6"/>
  <path d="m85.61 136.69 4.56-12.53 4.56 12.53" class="cls-21"/>
  <path d="M108.61 166.94h18.28v60.77h-18.28z" class="cls-8"/>
  <path d="M108.61 169.06h18.28v58.65h-18.28z" class="cls-13"/>
  <path d="M112.06 168.98h14.83v58.73h-14.83z" class="cls-12"/>
  <path d="m108.18 165.79 9.51-26.15 9.52 26.15" class="cls-6"/>
  <path d="m113.13 152.17 4.56-12.53 4.56 12.53" class="cls-21"/>
  <path d="M54.14 175.25h18.28v60.77H54.14z" class="cls-8"/>
  <path d="M54.14 177.38h18.28v58.65H54.14z" class="cls-13"/>
  <path d="M57.59 177.3h14.83v58.73H57.59z" class="cls-14"/>
  <path d="m53.71 174.1 9.52-26.15 9.51 26.15" class="cls-6"/>
  <path d="m58.67 160.49 4.56-12.54 4.56 12.54" class="cls-21"/>
  <rect width="92.52" height="98.29" x="44.54" y="194.12" class="cls-18" rx="7.54" ry="7.54"/>
  <path d="M129.52 196.12a5.54 5.54 0 0 1 5.54 5.54v83.21a5.54 5.54 0 0 1-5.54 5.54H52.08a5.54 5.54 0 0 1-5.54-5.54v-83.21a5.54 5.54 0 0 1 5.54-5.54h77.45m-.01-4H52.08c-5.26 0-9.54 4.28-9.54 9.54v83.21c0 5.26 4.28 9.54 9.54 9.54h77.45c5.26 0 9.54-4.28 9.54-9.54v-83.21c0-5.26-4.28-9.54-9.54-9.54z" class="cls-21"/>
  <rect width="81.66" height="88.55" x="53.4" y="201.86" class="cls-13" rx="5.54" ry="5.54"/>
  <path d="M243.71 111.3c-2.12 2.55-4.29 5.05-6.48 7.52-1.85 2.06-3.74 4.1-5.71 6.06-.59.59-1.55.63-2.2.09l-2.73-2.27a1.63 1.63 0 0 1-.31-2.17c3.4-4.93 7.28-9.74 11.08-14.33l.12-.14c2.12-2.55 4.29-5.05 6.48-7.52 1.85-2.06 3.74-4.1 5.71-6.06a1.64 1.64 0 0 1 2.2-.09l2.73 2.27c.65.54.78 1.48.31 2.17-3.4 4.93-7.28 9.74-11.08 14.33l-.12.14Z" class="cls-9"/>
  <path d="M237.98 111.78c-2.55-2.12-5.05-4.29-7.52-6.48-2.06-1.85-4.1-3.74-6.06-5.71a1.64 1.64 0 0 1-.09-2.2l2.27-2.73a1.63 1.63 0 0 1 2.17-.31c4.93 3.4 9.74 7.28 14.33 11.08l.14.12c2.55 2.12 5.05 4.29 7.52 6.48 2.06 1.85 4.1 3.74 6.06 5.71.59.59.63 1.55.09 2.2l-2.27 2.73c-.54.65-1.48.78-2.17.31-4.93-3.4-9.74-7.28-14.33-11.08l-.14-.12ZM286.1 111.12c-1.98 2.66-4 5.29-6.04 7.88-1.73 2.17-3.5 4.31-5.35 6.38-.56.63-1.51.72-2.19.22l-2.85-2.11c-.68-.5-.87-1.43-.43-2.15 3.11-5.12 6.71-10.14 10.24-14.94l.11-.15c1.98-2.66 4-5.29 6.04-7.88 1.73-2.17 3.5-4.31 5.35-6.38.56-.63 1.51-.72 2.19-.22l2.85 2.11c.68.5.87 1.43.43 2.15-3.11 5.12-6.71 10.14-10.24 14.94l-.11.15Z" class="cls-9"/>
  <path d="M280.41 111.93c-2.66-1.98-5.29-4-7.88-6.04-2.17-1.73-4.31-3.5-6.38-5.35-.63-.56-.72-1.51-.22-2.19l2.11-2.85c.5-.68 1.43-.87 2.15-.43 5.12 3.11 10.14 6.71 14.94 10.24l.15.11c2.66 1.98 5.29 4 7.88 6.04 2.17 1.73 4.31 3.5 6.38 5.35.63.56.72 1.51.22 2.19l-2.11 2.85c-.5.68-1.43.87-2.15.43-5.12-3.11-10.14-6.71-14.94-10.24l-.15-.11Z" class="cls-9"/>
  <path d="M317.56 206.1s32.46-12.94 34.97 17.91c1.91 23.4-55.31 27.06-54.95-2.65.17-13.75 19.61-21.98 30.58-23.33M176.9 119.02c-6.11 5.57-10.51 12.99-12.47 21.02" class="cls-3"/>
  <path d="m159.9 134.96 3.01 10.35 8.85-5.64" class="cls-3"/>
  <text fill="#e61f2a" stroke="#e61f2a" stroke-miterlimit="10" stroke-width="2" font-family="DreamingOutloudSans-Regular,&quot;Dreaming Outloud Sans&quot;" font-size="33" letter-spacing="-.02em" transform="rotate(8.99 -645.371 1208.278)"><tspan x="0" y="0">?</tspan></text>
  <text fill="#e61f2a" stroke="#e61f2a" stroke-miterlimit="10" stroke-width="1.57" font-family="DreamingOutloudSans-Regular,&quot;Dreaming Outloud Sans&quot;" font-size="25.88" letter-spacing="-.02em" transform="rotate(6.55 -1834.6 2862.842)"><tspan x="0" y="0">!!!</tspan></text>
  <path d="M395.84 144.78c3.59-2.71 6.84-5.86 9.67-9.35.56 3.11.79 6.28.67 9.44 1.33-2.27 3.22-4.21 5.46-5.6-.7 2.34-1.18 4.74-1.45 7.17 2.65-2.37 5.29-4.74 7.94-7.11-.49 2.21-.68 4.49-.54 6.75 1.16-2.54 2.67-4.92 4.48-7.05" class="cls-3"/>
  <g clip-path="url(#a)">
    <path d="m58.68 375.53 22-55h17.6l-26.4 55" class="cls-2"/>
    <path d="m90.71 336.31 7.57-15.78h-17.6l-6.31 15.78z" class="cls-21"/>
    <path d="m850.67 375.53-22-55h-17.6l26.4 55" class="cls-2"/>
    <path fill="#000333" d="m818.65 336.31-7.58-15.78h17.6l6.31 15.78z"/>
    <rect width="884" height="30.4" x="12.68" y="293.45" class="cls-13" rx="6" ry="6"/>
    <path d="M890.68 295.45c2.21 0 4 1.79 4 4v18.4c0 2.21-1.79 4-4 4h-872c-2.21 0-4-1.79-4-4v-18.4c0-2.21 1.79-4 4-4h872m0-4h-872c-4.41 0-8 3.59-8 8v18.4c0 4.41 3.59 8 8 8h872c4.41 0 8-3.59 8-8v-18.4c0-4.41-3.59-8-8-8z" class="cls-21"/>
    <rect width="880" height="22" x="14.68" y="299.85" fill="#6fb7ff" rx="4" ry="4"/>
  </g>
</svg>
